<?xml version="1.0"?>
<svg version="1.1" xmlns="http://www.w3.org/2000/svg" width="200px" height="200px" style=""><path fill="#" d="M51.4892578125,120.361328125q0-0.8544921875,0.5859375-1.08642578125t1.26953125-0.23193359375q1.1962890625,0,2.0263671875,1.07421875t1.57470703125,2.35595703125t1.47705078125,2.35595703125t1.7333984375,1.07421875q0.7568359375,0,1.37939453125-0.37841796875t1.07421875-0.9521484375t0.69580078125-1.2939453125t0.244140625-1.42822265625q0-1.85546875-0.74462890625-3.8330078125t-1.904296875-4.0771484375t-2.45361328125-4.296875t-2.44140625-4.4677734375t-1.904296875-4.62646484375t-0.7568359375-4.74853515625q0-3.5888671875,2.1484375-5.56640625t5.6640625-1.9775390625q1.1962890625,0,2.4169921875,0.341796875t2.24609375,1.025390625t1.67236328125,1.6845703125t0.64697265625,2.34375q0,0.439453125-0.64697265625,0.57373046875t-0.93994140625,0.13427734375q-0.439453125,0-0.9521484375-0.10986328125t-0.6591796875-0.59814453125t-0.4150390625-1.123046875t-0.67138671875-1.18408203125t-0.9521484375-0.9521484375t-1.20849609375-0.40283203125q-1.0986328125,0-1.86767578125,0.45166015625t-1.2451171875,1.20849609375t-0.7080078125,1.69677734375t-0.23193359375,1.94091796875q0,2.34375,0.8056640625,4.72412109375t2.001953125,4.736328125t2.60009765625,4.65087890625t2.60009765625,4.4677734375t2.001953125,4.248046875t0.8056640625,3.9306640625q0,1.66015625-0.78125,2.8076171875t-1.9775390625,1.86767578125t-2.64892578125,1.0498046875t-2.84423828125,0.32958984375q-1.4892578125,0-3.0517578125-0.59814453125t-2.8076171875-1.64794921875t-2.05078125-2.45361328125t-0.8056640625-3.03955078125z M73.502685546875,117.8466796875q0-0.9033203125,0.03662109375-2.64892578125t0.25634765625-3.55224609375t0.72021484375-3.271484375t1.50146484375-1.8798828125q0.244140625-0.09765625,0.79345703125-0.1708984375t1.0986328125-0.048828125t0.9765625,0.1953125t0.42724609375,0.634765625q0,0.09765625-0.09765625,0.2685546875t-0.5126953125,0.537109375q-0.7568359375,2.099609375-0.927734375,4.1748046875t-0.1708984375,4.2724609375q0,1.2939453125,0.08544921875,2.587890625t0.28076171875,2.6123046875q0.390625-0.5615234375,0.79345703125-1.6845703125t0.8544921875-2.45361328125t0.927734375-2.69775390625t1.07421875-2.490234375t1.318359375-1.85546875t1.62353515625-0.732421875q1.0009765625,0,1.67236328125,1.25732421875t1.2451171875,2.9052734375t1.07421875,3.3447265625t1.20849609375,2.60009765625q0.341796875-0.341796875,0.54931640625-0.89111328125t0.32958984375-1.18408203125t0.146484375-1.25732421875t0.0244140625-1.06201171875q0-1.0986328125-0.32958984375-2.38037109375t-0.69580078125-2.40478515625t-0.69580078125-1.89208984375t-0.32958984375-0.89111328125q0-0.1953125,0.20751953125-0.3173828125t0.47607421875-0.1953125t0.54931640625-0.09765625t0.42724609375-0.0244140625q0.9033203125,0,1.55029296875,1.0009765625t1.025390625,2.3193359375t0.54931640625,2.67333984375t0.1708984375,2.11181640625q0,0.9521484375-0.146484375,2.0263671875t-0.54931640625,1.98974609375t-1.18408203125,1.52587890625t-1.9775390625,0.6103515625q-1.4404296875,0-2.3681640625-0.8056640625t-1.50146484375-1.953125t-0.9033203125-2.50244140625t-0.62255859375-2.45361328125q-0.5615234375,1.2939453125-1.025390625,3.271484375t-1.171875,3.8818359375t-1.806640625,3.2470703125t-2.8564453125,1.3427734375t-2.50244140625-0.86669921875t-1.18408203125-2.38037109375l0.048828125,0.048828125q-0.29296875-1.0986328125-0.37841796875-2.197265625t-0.08544921875-2.197265625z M98.71435546875,115.3076171875q0-2.24609375,0.52490234375-4.40673828125t0.89111328125-4.30908203125q0.09765625-0.5615234375,0.76904296875-0.69580078125t1.13525390625-0.13427734375q0.8056640625,0,1.2939453125,0.244140625q0.1953125,0.09765625,0.3662109375,0.2197265625t0.1708984375,0.3173828125q0,2.099609375-0.50048828125,4.1015625t-0.50048828125,4.248046875q0,0.7568359375,0.10986328125,1.42822265625t0.20751953125,1.33056640625l0.146484375,0.7080078125q0,0.1953125,0.0244140625,0.341796875t0.0732421875,0.341796875q0,0.439453125-0.62255859375,0.59814453125t-1.08642578125,0.15869140625q-0.7080078125,0-1.30615234375-0.28076171875t-0.93994140625-0.96435546875l-0.341796875-0.7080078125q-0.29296875-0.5615234375-0.29296875-1.25732421875t-0.1220703125-1.28173828125z M100.27685546875,100.6103515625l0-0.4638671875q0-1.1474609375,0.57373046875-2.05078125t1.72119140625-0.9033203125q0.146484375,0,0.28076171875,0.0244140625t0.28076171875,0.0244140625q0.29296875,0.048828125,0.76904296875,0.23193359375t0.47607421875,0.57373046875l0,0.048828125q-0.09765625,0.1953125-0.1220703125,0.40283203125t-0.1220703125,0.35400390625l0.048828125-0.048828125q-0.29296875,0.7568359375-0.47607421875,1.220703125t-0.40283203125,0.74462890625t-0.54931640625,0.40283203125t-0.93994140625,0.1220703125q-0.09765625,0-0.341796875-0.0244140625t-0.52490234375-0.09765625t-0.47607421875-0.1953125t-0.1953125-0.3662109375z M109.37524414062,115.4052734375q0-1.7578125,0.45166015625-3.52783203125t1.40380859375-3.173828125t2.42919921875-2.28271484375t3.47900390625-0.87890625q0.8544921875,0,1.8798828125,0.20751953125t1.89208984375,0.6591796875t1.46484375,1.171875t0.59814453125,1.77001953125q0,0.6591796875-0.341796875,0.87890625t-0.9033203125,0.2197265625l-0.1708984375-0.244140625t-0.47607421875-0.62255859375t-0.64697265625-0.8056640625t-0.6591796875-0.72021484375q-1.0009765625-1.0009765625-1.8798828125-1.07421875l-0.1953125,0q-0.732421875,0-1.3671875,0.439453125q-0.7080078125,0.537109375-1.25732421875,1.513671875t-0.91552734375,2.0751953125t-0.57373046875,2.2216796875t-0.20751953125,1.85546875q0,1.0009765625,0.23193359375,2.28271484375t0.78125,2.42919921875t1.3916015625,1.9287109375t2.16064453125,0.78125q1.1962890625,0,2.1728515625-0.5859375t1.86767578125-1.30615234375t1.74560546875-1.2939453125t1.7578125-0.57373046875q0.390625,0,0.79345703125,0.09765625t0.40283203125,0.5126953125l0,0.146484375q-0.439453125,1.1474609375-1.4892578125,2.0263671875t-2.35595703125,1.52587890625t-2.7099609375,0.96435546875t-2.50244140625,0.3173828125q-2.05078125,0-3.60107421875-0.67138671875t-2.57568359375-1.84326171875t-1.55029296875-2.81982421875t-0.52490234375-3.60107421875z M130.6806640625,115.8935546875q0-1.66015625,0.45166015625-3.1982421875t1.35498046875-2.74658203125t2.25830078125-1.9287109375t3.13720703125-0.72021484375q1.0986328125,0,2.42919921875,0.32958984375t2.50244140625,0.9765625t1.953125,1.64794921875t0.78125,2.294921875q0,0.6103515625-0.20751953125,0.927734375t-0.84228515625,0.3173828125l-0.2685546875-0.048828125q0.7080078125,1.904296875,1.220703125,3.90625t1.0009765625,4.00390625q0.1953125,0.390625,0.29296875,0.69580078125t0.09765625,0.59814453125q0,0.390625-0.2197265625,0.64697265625t-0.57373046875,0.37841796875t-0.732421875,0.1708984375t-0.67138671875,0.048828125q-1.0498046875,0-1.57470703125-0.3662109375t-0.7568359375-1.0009765625t-0.28076171875-1.42822265625t-0.1953125-1.59912109375q-0.29296875,0.9521484375-0.76904296875,1.85546875t-1.123046875,1.62353515625t-1.52587890625,1.1474609375t-1.9775390625,0.42724609375q-1.611328125,0-2.7099609375-0.927734375t-1.77001953125-2.28271484375t-0.9765625-2.89306640625t-0.30517578125-2.8564453125z M134.1474609375,115.5517578125q0,0.9033203125,0.1220703125,1.904296875t0.40283203125,1.9775390625t0.72021484375,1.84326171875t1.0986328125,1.52587890625q1.1962890625-1.2939453125,1.77001953125-3.1494140625t1.025390625-3.57666015625t1.025390625-2.9541015625t1.77001953125-1.23291015625q0.7568359375,0,1.26953125,0.2685546875q-0.244140625-0.6103515625-0.8056640625-1.18408203125t-1.25732421875-1.0498046875t-1.4404296875-0.78125t-1.40380859375-0.30517578125q-0.1953125,0-0.45166015625,0.06103515625t-0.40283203125,0.01220703125q-1.0009765625,0.29296875-1.64794921875,1.01318359375t-1.0498046875,1.69677734375t-0.57373046875,2.001953125t-0.1708984375,1.9287109375z M151.83959960938,124.560546875q0-0.7080078125,0.06103515625-1.4892578125t0.10986328125-1.46484375l0.146484375-3.662109375q0.244140625-4.39453125,0.59814453125-8.642578125t0.59814453125-8.59375q0.146484375-2.392578125,0.2197265625-4.69970703125t0.2197265625-4.69970703125q-0.09765625-0.1953125-0.09765625-0.2685546875q0-0.341796875,0.25634765625-0.537109375t0.59814453125-0.32958984375t0.72021484375-0.18310546875t0.57373046875-0.048828125l0.5615234375,0q0.7568359375,0.09765625,1.0986328125,0.47607421875t0.439453125,0.9033203125t0.048828125,1.123046875t-0.048828125,1.11083984375q0,3.5400390625-0.1708984375,7.21435546875t-0.390625,7.373046875t-0.40283203125,7.3974609375t-0.18310546875,7.31201171875l0,1.708984375q0,1.1474609375-0.64697265625,1.513671875t-1.79443359375,0.3662109375q-1.0009765625,0-1.7578125-0.439453125t-0.7568359375-1.4404296875z M163.03759765625,124.560546875q0-0.7080078125,0.06103515625-1.4892578125t0.10986328125-1.46484375l0.146484375-3.662109375q0.244140625-4.39453125,0.59814453125-8.642578125t0.59814453125-8.59375q0.146484375-2.392578125,0.2197265625-4.69970703125t0.2197265625-4.69970703125q-0.09765625-0.1953125-0.09765625-0.2685546875q0-0.341796875,0.25634765625-0.537109375t0.59814453125-0.32958984375t0.72021484375-0.18310546875t0.57373046875-0.048828125l0.5615234375,0q0.7568359375,0.09765625,1.0986328125,0.47607421875t0.439453125,0.9033203125t0.048828125,1.123046875t-0.048828125,1.11083984375q0,3.5400390625-0.1708984375,7.21435546875t-0.390625,7.373046875t-0.40283203125,7.3974609375t-0.18310546875,7.31201171875l0,1.708984375q0,1.1474609375-0.64697265625,1.513671875t-1.79443359375,0.3662109375q-1.0009765625,0-1.7578125-0.439453125t-0.7568359375-1.4404296875z"/><path fill="#" d=""/></svg>
